<svg width="17" height="16" viewBox="0 0 17 16" fill="none" xmlns="http://www.w3.org/2000/svg">
<path d="M8.44071 0.710333C8.58526 0.265437 9.21467 0.265436 9.35923 0.710332L10.9057 5.46981C10.9703 5.66877 11.1557 5.80348 11.3649 5.80348H16.3693C16.8371 5.80348 17.0316 6.40208 16.6532 6.67704L12.6045 9.61856C12.4353 9.74153 12.3645 9.95949 12.4291 10.1585L13.9756 14.9179C14.1201 15.3628 13.6109 15.7328 13.2325 15.4578L9.1838 12.5163C9.01456 12.3933 8.78538 12.3933 8.61613 12.5163L4.56748 15.4578C4.18903 15.7328 3.67982 15.3628 3.82438 14.9179L5.37083 10.1585C5.43547 9.95949 5.36465 9.74153 5.1954 9.61856L1.14675 6.67704C0.768302 6.40208 0.9628 5.80348 1.43059 5.80348H6.435C6.6442 5.80348 6.82961 5.66877 6.89426 5.46981L8.44071 0.710333Z" fill="#C1AE05"/>
</svg>
